<svg width="30" height="52" viewBox="0 0 30 52" fill="none" xmlns="http://www.w3.org/2000/svg">
<g clip-path="url(#clip0_40_708)">
<path d="M30 0.925654L28.6156 0L20.0323 8.38534H22.3581L30 0.925654ZM23.521 30.9277C23.521 29.6754 23.2995 28.4775 22.9119 27.3885C22.9119 27.3885 22.9119 27.334 22.8565 27.334C22.8565 27.2796 22.8565 27.2796 22.8011 27.2251C22.4688 26.3539 20.8629 22.0524 20.8629 18.1864C20.8629 14.9194 22.5242 10.6178 22.5242 10.6178H5.46839C6.1329 9.03874 7.73881 8.43979 9.89848 8.43979H15.9898L17.7619 6.69738C13.7194 2.72251 7.0743 2.72251 3.03184 6.69738C-1.01061 10.6723 -1.01061 17.2063 3.03184 21.1812L7.79419 16.3895C7.90494 17.0429 7.96031 17.6419 7.96031 18.2408C7.96031 22.1068 6.40978 26.4084 6.07753 27.2796C6.07753 27.334 6.07753 27.334 6.02215 27.3885C6.02215 27.4429 6.02215 27.4429 6.02215 27.4429C5.63452 28.5319 5.41301 29.7298 5.41301 30.9822C5.41301 34.1948 6.85279 37.4618 9.17859 39.4764C9.6216 39.8576 10.12 40.2387 10.6737 40.511C13.1103 42.4712 12.7227 43.778 12.7227 46.0105V46.5005C12.7227 48.0251 12.2797 49.1141 11.0614 49.1141H9.56622C7.96031 49.1141 6.63129 50.4209 6.63129 52H22.192C22.192 50.4209 20.8629 49.1141 19.257 49.1141H17.7619C16.5436 49.1141 16.1006 48.0251 16.1006 46.5005V46.0105C16.1006 43.778 15.7683 42.4712 18.2049 40.511C18.7587 40.2387 19.257 39.8576 19.7 39.4764C22.0812 37.4073 23.521 34.1403 23.521 30.9277ZM19.9216 28.4775C19.8662 28.4775 19.8108 28.5319 19.7 28.5319C19.4785 28.5319 19.257 28.423 19.2017 28.2052C19.1463 27.9874 17.2635 23.4136 17.2635 19.5476C17.2635 16.0084 18.0941 13.7759 18.0941 13.667C18.2049 13.3948 18.5371 13.2314 18.814 13.3403C19.0909 13.4492 19.257 13.7759 19.1463 14.0482C19.1463 14.0482 18.371 16.2262 18.371 19.5476C18.371 23.1958 20.2538 27.7696 20.2538 27.8241C20.3646 28.0419 20.1984 28.3141 19.9216 28.4775Z" fill="black"/>
</g>
<defs>
<clipPath id="clip0_40_708">
<rect width="30" height="52" fill="white"/>
</clipPath>
</defs>
</svg>
