<svg width="52" height="52" viewBox="0 0 52 52" fill="none" xmlns="http://www.w3.org/2000/svg">
<path d="M41.4375 45.5H12.1875C10.8388 45.5 9.75 46.5888 9.75 47.9375C9.75 49.2862 10.8388 50.375 12.1875 50.375H41.4375C42.7863 50.375 43.875 49.2862 43.875 47.9375C43.875 46.5888 42.7863 45.5 41.4375 45.5Z" fill="black"/>
<path d="M34.7425 43.875C43.875 40.3487 50.375 31.4762 50.375 21.125C50.375 20.2312 49.6437 19.5 48.75 19.5H44.7525H42.6075H41.1938H39.2925H3.25C2.35625 19.5 1.625 20.2312 1.625 21.125C1.625 31.4762 8.125 40.3487 17.2575 43.875H34.7425Z" fill="black"/>
<path d="M42.9325 17.8751H45.4675L50.2288 7.16636C50.6025 6.33761 50.2288 5.37886 49.4163 5.02136C48.5875 4.64761 47.6288 5.02136 47.2713 5.83386L43.7613 13.7314L45.4675 5.20011C45.6463 4.30636 45.0775 3.46136 44.2 3.28261C43.3225 3.10386 42.4613 3.67261 42.2825 4.55011L39.6175 17.8751H41.925H42.9325Z" fill="black"/>
<path d="M16.7212 15.0963C16.0875 15.7301 16.0875 16.7538 16.7212 17.3876C17.0462 17.7126 17.4525 17.8751 17.875 17.8751C18.2975 17.8751 18.7037 17.7126 19.0287 17.4038C19.4187 17.0138 21.2712 14.7876 19.4187 9.24632C18.3137 5.93132 20.0362 4.82632 20.2475 4.69632C21.0275 4.29007 21.3525 3.33132 20.9462 2.53507C20.54 1.73882 19.565 1.39757 18.7687 1.80382C17.2087 2.58382 14.69 5.36257 16.3312 10.2701C17.5175 13.8126 16.705 15.0963 16.7212 15.0963Z" fill="black"/>
<path d="M24.8462 15.0963C24.2125 15.7301 24.2125 16.7538 24.8462 17.3876C25.1712 17.7126 25.5775 17.8751 26 17.8751C26.4225 17.8751 26.8287 17.7126 27.1537 17.4038C27.5437 17.0138 29.3962 14.7876 27.5437 9.24632C26.4387 5.93132 28.1612 4.82632 28.3725 4.69632C29.1525 4.29007 29.4775 3.33132 29.0712 2.53507C28.665 1.73882 27.69 1.39757 26.8937 1.80382C25.3337 2.58382 22.815 5.36257 24.4562 10.2701C25.6425 13.8126 24.83 15.0963 24.8462 15.0963Z" fill="black"/>
<path d="M32.9712 15.0963C32.3375 15.7301 32.3375 16.7538 32.9712 17.3876C33.2962 17.7126 33.7025 17.8751 34.125 17.8751C34.5475 17.8751 34.9537 17.7126 35.2787 17.4038C35.6687 17.0138 37.5212 14.7876 35.6687 9.24632C34.5637 5.93132 36.2862 4.82632 36.4975 4.69632C37.2775 4.29007 37.6025 3.33132 37.1962 2.53507C36.79 1.73882 35.815 1.39757 35.0187 1.80382C33.4587 2.58382 30.94 5.36257 32.5812 10.2701C33.7675 13.8126 32.955 15.0963 32.9712 15.0963Z" fill="black"/>
</svg>
